<svg width="158" height="240" viewBox="0 0 158 240" fill="none" xmlns="http://www.w3.org/2000/svg" xmlns:xlink="http://www.w3.org/1999/xlink">
<path d="M25.915,222.262L52.444,238.58L79.028,222.262L105.556,238.58L132.085,222.262L158,238.58L158,0L0,0L0,238.58L25.915,222.262Z" fill="url(#pf_0_i_1_698;504_41329)"/>
<path d="M142.674,202.885L19.563,202.885L19.563,205.223L142.674,205.223L142.674,202.885Z" fill="#000000"/>
<path d="M52.667,33.564L19.563,33.564L19.563,35.902L52.667,35.902L52.667,33.564Z" fill="#000000"/>
<path d="M138.437,33.564L105.332,33.564L105.332,35.902L138.437,35.902L138.437,33.564Z" fill="#000000"/>
<path d="M68.328,27.886C67.771,28.944 67.214,30.113 66.656,31.449C66.099,32.784 65.542,34.12 64.984,35.568C64.427,37.015 63.87,38.351 63.257,39.575C62.819,40.582 62.237,41.519 61.529,42.358C60.956,43.072 60.257,43.676 59.467,44.139C58.792,44.553 58.028,44.802 57.238,44.863C56.533,44.918 55.826,44.794 55.183,44.502C54.539,44.21 53.981,43.759 53.559,43.193C53.233,42.703 53.006,42.155 52.89,41.579C52.789,41.047 52.77,40.502 52.835,39.965C52.876,39.546 52.97,39.135 53.113,38.74C53.281,38.462 53.392,38.295 53.615,38.239C53.782,38.239 53.949,38.406 54.061,38.851C54.146,39.274 54.384,39.651 54.73,39.909C55.027,40.141 55.368,40.312 55.733,40.41C56.121,40.466 56.515,40.466 56.903,40.41C57.312,40.291 57.705,40.122 58.074,39.909C58.395,39.699 58.694,39.456 58.965,39.185C59.271,38.875 59.551,38.54 59.801,38.184C60.093,37.835 60.354,37.463 60.581,37.07C60.804,36.681 61.027,36.291 61.25,35.957C61.64,35.234 62.086,34.399 62.532,33.508C62.978,32.617 63.424,31.727 63.87,30.781C64.307,29.866 64.791,28.975 65.319,28.109C65.767,27.284 66.289,26.502 66.879,25.771C65.841,25.845 64.799,25.863 63.758,25.827C62.77,25.81 61.784,25.736 60.804,25.604C59.857,25.493 59.021,25.326 58.185,25.159C57.455,25.02 56.744,24.796 56.067,24.491C55.453,24.246 54.914,23.843 54.507,23.322C54.136,22.848 53.836,22.323 53.615,21.763C53.42,21.268 53.325,20.738 53.336,20.205C53.325,19.79 53.382,19.377 53.504,18.98C53.615,18.646 53.782,18.424 54.005,18.368C54.228,18.312 54.507,18.424 54.785,18.758C55.462,19.405 56.284,19.883 57.182,20.149C58.455,20.596 59.759,20.949 61.083,21.207C62.632,21.481 64.195,21.667 65.765,21.763C67.324,21.885 68.89,21.867 70.446,21.708C71.153,21.16 71.92,20.693 72.731,20.316C73.525,19.948 74.371,19.704 75.239,19.593C75.884,19.489 76.546,19.586 77.134,19.871C77.33,19.97 77.501,20.112 77.636,20.285C77.771,20.458 77.866,20.659 77.914,20.873C77.926,21.131 77.882,21.389 77.786,21.629C77.69,21.869 77.544,22.086 77.357,22.264C76.818,22.881 76.153,23.374 75.406,23.712C74.62,24.103 73.799,24.42 72.954,24.658C72.04,24.939 71.109,25.162 70.167,25.326C70.153,25.326 70.138,25.332 70.128,25.342C70.118,25.353 70.112,25.367 70.112,25.381C69.426,26.148 68.828,26.988 68.328,27.886L68.328,27.886ZM100.987,33.675C100.959,33.997 100.843,34.305 100.653,34.566C100.003,35.48 99.276,36.337 98.479,37.126C97.729,37.856 96.907,38.508 96.027,39.074C95.217,39.605 94.335,40.017 93.408,40.299C92.544,40.582 91.642,40.732 90.732,40.744C89.84,40.759 88.958,40.549 88.169,40.132C87.476,39.766 86.926,39.178 86.608,38.462C86.387,37.93 86.256,37.366 86.218,36.792C85.61,37.447 84.958,38.061 84.267,38.629C83.51,39.221 82.687,39.726 81.815,40.132C81.034,40.517 80.178,40.726 79.307,40.744C78.742,40.774 78.18,40.639 77.691,40.354C77.309,40.106 77.001,39.76 76.799,39.352C76.624,38.891 76.567,38.394 76.632,37.905C76.718,37.277 76.926,36.672 77.245,36.124C77.569,35.502 77.941,34.906 78.36,34.343C78.806,33.731 79.196,33.118 79.53,32.617C79.802,32.234 79.992,31.798 80.088,31.337C80.143,31.003 79.92,30.836 79.475,30.836C79.052,30.878 78.647,31.031 78.304,31.282C77.745,31.636 77.239,32.067 76.799,32.562C76.129,33.26 75.531,34.024 75.016,34.844C74.347,35.79 73.678,36.959 72.898,38.295L72.787,38.629C72.508,39.185 72.341,39.575 72.174,39.909C72.007,40.187 71.895,40.41 71.672,40.521C71.477,40.661 71.244,40.739 71.003,40.744C70.725,40.744 70.335,40.8 69.833,40.8C69.516,40.812 69.199,40.794 68.886,40.744C68.607,40.688 68.44,40.577 68.384,40.41C68.327,40.288 68.298,40.155 68.298,40.02C68.298,39.886 68.327,39.753 68.384,39.631C68.55,39.115 68.755,38.612 68.997,38.128C69.499,37.182 70.167,36.013 71.003,34.51C71.839,33.007 72.787,31.449 73.846,29.834C74.905,28.165 75.963,26.606 77.078,25.048C78.193,23.489 79.196,22.153 80.143,21.04C80.58,20.513 81.133,20.093 81.76,19.815C82.172,19.605 82.645,19.546 83.097,19.648C83.468,19.752 83.786,19.99 83.989,20.316C84.204,20.707 84.301,21.152 84.267,21.597C84.175,22.354 83.865,23.069 83.376,23.656C82.789,24.365 82.156,25.034 81.481,25.66C80.756,26.328 80.032,27.051 79.252,27.719C78.499,28.392 77.859,29.182 77.357,30.057C77.982,29.523 78.675,29.073 79.419,28.721C80.039,28.399 80.726,28.228 81.425,28.22C81.745,28.182 82.069,28.212 82.376,28.308C82.684,28.404 82.967,28.564 83.209,28.777C83.388,28.981 83.525,29.22 83.611,29.478C83.697,29.736 83.731,30.008 83.71,30.28C83.63,31.026 83.443,31.758 83.153,32.45C82.764,33.343 82.298,34.199 81.76,35.011C81.537,35.345 81.369,35.679 81.146,36.013C80.995,36.312 80.882,36.63 80.812,36.959C80.755,37.178 80.755,37.408 80.812,37.627C80.867,37.724 80.949,37.802 81.048,37.851C81.147,37.901 81.259,37.92 81.369,37.905C81.834,37.894 82.291,37.78 82.707,37.571C83.243,37.337 83.749,37.038 84.212,36.681C85.269,35.922 86.16,34.956 86.831,33.842C86.943,33.675 87.054,33.564 87.11,33.452C87.166,33.341 87.221,33.174 87.277,33.063C87.681,32.29 88.167,31.562 88.726,30.892C89.28,30.217 89.939,29.634 90.677,29.166C91.35,28.719 92.109,28.416 92.906,28.276C93.696,28.119 94.515,28.217 95.247,28.554C95.772,28.766 96.234,29.111 96.584,29.556C96.889,29.958 97.064,30.444 97.086,30.948C97.076,31.484 96.963,32.013 96.751,32.506C96.461,33.077 96.064,33.588 95.581,34.009C94.808,34.667 93.945,35.211 93.017,35.623C92.056,36.047 91.045,36.346 90.008,36.514C90.092,36.952 90.329,37.346 90.677,37.627C91.008,37.872 91.388,38.043 91.791,38.128C92.424,38.227 93.07,38.189 93.686,38.017C94.427,37.836 95.139,37.555 95.804,37.182C97.24,36.395 98.494,35.314 99.482,34.009C99.683,33.725 99.951,33.495 100.263,33.341C100.452,33.244 100.672,33.224 100.876,33.285C100.947,33.403 100.985,33.538 100.987,33.675L100.987,33.675ZM90.008,34.51C90.778,34.362 91.527,34.119 92.237,33.786C93.048,33.427 93.743,32.849 94.243,32.117C94.634,31.616 94.745,31.17 94.578,30.836C94.411,30.502 94.076,30.391 93.575,30.447C92.959,30.576 92.396,30.886 91.958,31.337C91.213,32.03 90.64,32.888 90.287,33.842L90.008,34.51Z" fill="#000000"/>
<path d="M138.437,91.451L129.966,91.451L114.918,63.676L114.918,91.451L105.332,91.451L105.332,50.429L119.154,50.429L128.739,70.133L128.739,50.429L138.437,50.429L138.437,91.451ZM90.786,142.326L67.211,142.326C65.944,142.384 64.704,141.944 63.756,141.101C63.303,140.721 62.942,140.242 62.701,139.703C62.46,139.163 62.344,138.575 62.363,137.984L62.363,101.192L72.116,101.192L72.116,133.587L85.937,133.587L85.937,101.192L95.69,101.192L95.69,137.984C95.709,138.575 95.594,139.163 95.352,139.703C95.111,140.242 94.75,140.721 94.297,141.101C93.323,141.937 92.069,142.374 90.786,142.326L90.786,142.326ZM52.665,64.4L52.665,54.826C52.673,54.229 52.553,53.636 52.313,53.089C52.073,52.542 51.718,52.052 51.272,51.654C50.321,50.811 49.088,50.355 47.817,50.373L24.354,50.373C23.08,50.345 21.844,50.803 20.898,51.654C20.461,52.056 20.116,52.548 19.885,53.095C19.655,53.643 19.544,54.233 19.561,54.826L19.561,87.11C19.544,87.695 19.655,88.277 19.886,88.815C20.117,89.353 20.462,89.835 20.898,90.227C21.846,91.07 23.086,91.509 24.354,91.451L47.761,91.451C49.029,91.509 50.269,91.07 51.216,90.227C51.669,89.846 52.03,89.368 52.271,88.828C52.513,88.288 52.628,87.701 52.61,87.11L52.61,77.647L42.968,77.647L42.968,82.824L29.146,82.824L29.146,63.008L23.852,59.223L42.968,59.223L42.968,64.4L52.665,64.4ZM94.13,51.654C93.2,50.812 91.985,50.355 90.73,50.373L67.267,50.373C66.012,50.355 64.797,50.812 63.867,51.654C63.42,52.027 63.062,52.496 62.821,53.026C62.58,53.556 62.461,54.133 62.474,54.715L62.474,87.11C62.455,87.701 62.571,88.288 62.812,88.828C63.054,89.368 63.414,89.846 63.867,90.227C64.804,91.052 66.019,91.49 67.267,91.451L90.786,91.451C92.034,91.49 93.25,91.052 94.186,90.227C94.639,89.846 94.999,89.368 95.241,88.828C95.482,88.288 95.598,87.701 95.579,87.11L95.579,54.715C95.557,54.133 95.417,53.562 95.168,53.036C94.919,52.51 94.566,52.04 94.13,51.654ZM85.882,82.712L72.172,82.712L72.172,63.008L66.766,59.168L85.882,59.168L85.882,82.712L85.882,82.712ZM55.619,146.667L51.606,140.656C52.294,139.914 52.672,138.939 52.665,137.929L52.665,105.534C52.672,104.952 52.551,104.377 52.311,103.848C52.07,103.319 51.715,102.849 51.272,102.472C50.342,101.631 49.127,101.173 47.872,101.192L24.354,101.192C23.099,101.173 21.884,101.631 20.954,102.472C20.506,102.845 20.149,103.314 19.908,103.844C19.666,104.374 19.548,104.952 19.561,105.534L19.561,137.929C19.542,138.519 19.657,139.107 19.899,139.647C20.14,140.187 20.501,140.665 20.954,141.046C21.89,141.871 23.106,142.308 24.354,142.27L41.407,142.27L44.361,146.723L55.619,146.723L55.619,146.667ZM23.852,109.931L42.968,109.931L42.968,133.476L29.258,133.476L29.258,113.772L23.852,109.931ZM47.482,179.062C48.757,179.101 49.997,178.642 50.938,177.782C51.392,177.39 51.753,176.902 51.994,176.353C52.235,175.804 52.35,175.208 52.331,174.609L52.331,156.408C52.338,155.827 52.217,155.251 51.976,154.722C51.735,154.193 51.381,153.723 50.938,153.347C49.986,152.504 48.754,152.048 47.482,152.066L19.561,152.066L19.561,193.089L29.258,193.089L29.258,179.062L36.224,179.062L45.643,193.145L56.901,193.145L47.482,179.062ZM42.689,170.323L29.258,170.323L29.258,164.702L23.852,160.861L42.745,160.861L42.745,170.323L42.689,170.323ZM94.13,153.402C93.2,152.561 91.985,152.104 90.73,152.122L67.267,152.122C66.012,152.104 64.797,152.561 63.867,153.402C63.42,153.775 63.062,154.244 62.821,154.774C62.58,155.304 62.461,155.882 62.474,156.464L62.474,188.859C62.455,189.45 62.571,190.037 62.812,190.577C63.054,191.117 63.414,191.595 63.867,191.976C64.804,192.801 66.019,193.239 67.267,193.2L90.786,193.2C92.034,193.239 93.25,192.801 94.186,191.976C94.639,191.595 94.999,191.117 95.241,190.577C95.482,190.037 95.598,189.45 95.579,188.859L95.579,156.464C95.569,155.88 95.434,155.305 95.184,154.777C94.934,154.249 94.575,153.781 94.13,153.402L94.13,153.402ZM85.882,184.406L72.172,184.406L72.172,164.702L66.766,160.861L85.882,160.861L85.882,184.406L85.882,184.406ZM133.254,179.062C134.528,179.101 135.768,178.642 136.709,177.782C137.153,177.382 137.507,176.892 137.748,176.345C137.988,175.798 138.109,175.207 138.102,174.609L138.102,156.408C138.109,155.827 137.988,155.251 137.748,154.722C137.507,154.193 137.152,153.723 136.709,153.347C135.758,152.504 134.525,152.048 133.254,152.066L105.332,152.066L105.332,193.089L115.029,193.089L115.029,179.062L121.996,179.062L131.415,193.145L142.672,193.145L133.254,179.062ZM128.461,170.323L115.029,170.323L115.029,164.702L109.623,160.861L128.461,160.861L128.461,170.323ZM138.437,101.303L105.332,101.303L105.332,142.326L138.437,142.326L138.437,133.698L114.806,133.698L114.806,126.295L130.244,126.295L130.244,117.668L114.862,117.668L114.862,113.883L109.623,110.154L138.492,110.154L138.492,101.303L138.437,101.303Z" fill="#000000"/>
<defs>
<linearGradient id="pf_0_i_1_698;504_41329" x1="143.552" y1="10.109" x2="18.197" y2="215.329" gradientUnits="userSpaceOnUse">
<stop stop-color="#FFEE99"/>
<stop offset="0.208" stop-color="#FEF9D0"/>
<stop offset="1" stop-color="#DBB859"/>
</linearGradient>
</defs>
</svg>
