<svg width="14" height="24" viewBox="0 0 14 24" fill="none" xmlns="http://www.w3.org/2000/svg" xmlns:xlink="http://www.w3.org/1999/xlink">
<path d="M1.166,0.422C0.98,0.607 0.833,0.827 0.733,1.068C0.633,1.31 0.581,1.57 0.581,1.832C0.581,2.094 0.633,2.353 0.733,2.595C0.833,2.837 0.98,3.057 1.166,3.242L8.926,11.002L1.166,18.762C0.981,18.947 0.834,19.167 0.734,19.409C0.633,19.651 0.582,19.91 0.582,20.172C0.582,20.434 0.633,20.693 0.734,20.935C0.834,21.177 0.981,21.397 1.166,21.582C1.351,21.767 1.571,21.914 1.813,22.014C2.055,22.114 2.314,22.166 2.576,22.166C2.838,22.166 3.097,22.114 3.339,22.014C3.581,21.914 3.801,21.767 3.986,21.582L13.166,12.402C13.351,12.217 13.498,11.997 13.599,11.755C13.699,11.513 13.751,11.254 13.751,10.992C13.751,10.73 13.699,10.47 13.599,10.228C13.498,9.987 13.351,9.767 13.166,9.582L3.986,0.402C3.226,-0.358 1.946,-0.358 1.166,0.422Z" transform="rotate(180 7.166 11)" fill="#000000"/>
</svg>
