<svg width="38" height="34" viewBox="0 0 38 34" fill="none" xmlns="http://www.w3.org/2000/svg" xmlns:xlink="http://www.w3.org/1999/xlink">
<path d="M10.717,22L28.717,22C29.817,22 30.717,22.9 30.717,24C30.717,25.1 29.817,26 28.717,26L8.717,26C7.617,26 6.717,25.1 6.717,24L6.717,4L2.717,4C1.617,4 0.717,3.1 0.717,2C0.717,0.9 1.617,0 2.717,0L8.717,0C9.817,0 10.717,0.9 10.717,2L10.717,6L36.717,6L28.717,20L10.717,20L10.717,22ZM9.717,28C11.377,28 12.717,29.34 12.717,31C12.717,32.66 11.377,34 9.717,34C8.057,34 6.717,32.66 6.717,31C6.717,29.34 8.057,28 9.717,28ZM27.717,28C29.377,28 30.717,29.34 30.717,31C30.717,32.66 29.377,34 27.717,34C26.057,34 24.717,32.66 24.717,31C24.717,29.34 26.057,28 27.717,28Z" fill="#FFFFFF"/>
</svg>
